<svg width="21" height="19" viewBox="0 0 21 19" fill="none" xmlns="http://www.w3.org/2000/svg">
<g clip-path="url(#clip0)">
<g filter="url(#filter0_di)">
<path fill-rule="evenodd" clip-rule="evenodd" d="M10.5361 1.01268C15.2553 1.01268 19.0809 4.79644 19.0809 9.46388C19.0809 14.1311 15.2553 17.9149 10.5361 17.9149C5.81692 17.9149 1.99126 14.1311 1.99126 9.46388C1.99126 4.79644 5.81692 1.01268 10.5361 1.01268Z" fill="#F54819"/>
<path fill-rule="evenodd" clip-rule="evenodd" d="M10.5361 1.01268C15.2553 1.01268 19.0809 4.79644 19.0809 9.46388C19.0809 14.1311 15.2553 17.9149 10.5361 17.9149C5.81692 17.9149 1.99126 14.1311 1.99126 9.46388C1.99126 4.79644 5.81692 1.01268 10.5361 1.01268Z" fill="url(#paint0_linear)"/>
</g>
</g>
<defs>
<filter id="filter0_di" x="0.991211" y="0.0126801" width="19.0897" height="18.9023" filterUnits="userSpaceOnUse" color-interpolation-filters="sRGB">
<feFlood flood-opacity="0" result="BackgroundImageFix"/>
<feColorMatrix in="SourceAlpha" type="matrix" values="0 0 0 0 0 0 0 0 0 0 0 0 0 0 0 0 0 0 127 0"/>
<feOffset/>
<feGaussianBlur stdDeviation="0.5"/>
<feColorMatrix type="matrix" values="0 0 0 0 0.654902 0 0 0 0 0.176471 0 0 0 0 0.0941176 0 0 0 0.68 0"/>
<feBlend mode="normal" in2="BackgroundImageFix" result="effect1_dropShadow"/>
<feBlend mode="normal" in="SourceGraphic" in2="effect1_dropShadow" result="shape"/>
<feColorMatrix in="SourceAlpha" type="matrix" values="0 0 0 0 0 0 0 0 0 0 0 0 0 0 0 0 0 0 127 0" result="hardAlpha"/>
<feOffset dy="1"/>
<feComposite in2="hardAlpha" operator="arithmetic" k2="-1" k3="1"/>
<feColorMatrix type="matrix" values="0 0 0 0 1 0 0 0 0 0.619608 0 0 0 0 0.466667 0 0 0 0.54 0"/>
<feBlend mode="normal" in2="shape" result="effect2_innerShadow"/>
</filter>
<linearGradient id="paint0_linear" x1="21" y1="19" x2="21" y2="0" gradientUnits="userSpaceOnUse">
<stop stop-color="#FC2A00"/>
<stop offset="1" stop-color="#F54819"/>
</linearGradient>
<clipPath id="clip0">
<rect width="21" height="19" fill="white"/>
</clipPath>
</defs>
</svg>
