<svg width="38" height="36" viewBox="0 0 38 36" fill="none" xmlns="http://www.w3.org/2000/svg">
<g filter="url(#filter0_di)">
<path fill-rule="evenodd" clip-rule="evenodd" d="M4.00004 2.00002H30.0313C31.6882 2.00002 33.0312 3.34308 33.0312 5.00008V31.0624C33.0312 32.7193 31.6882 34.0625 30.0313 34.0625H4.00004C2.34314 34.0625 1.00005 32.7193 1.00005 31.0624V5.00008C1.00005 3.34308 2.34314 2.00002 4.00004 2.00002Z" fill="#FA5B33"/>
<path fill-rule="evenodd" clip-rule="evenodd" d="M4.00004 2.00002H30.0313C31.6882 2.00002 33.0312 3.34308 33.0312 5.00008V31.0624C33.0312 32.7193 31.6882 34.0625 30.0313 34.0625H4.00004C2.34314 34.0625 1.00005 32.7193 1.00005 31.0624V5.00008C1.00005 3.34308 2.34314 2.00002 4.00004 2.00002Z" fill="url(#paint0_linear)"/>
<path d="M30.0313 1.50002H4.00004C2.067 1.50002 0.500055 3.06694 0.500055 5.00008V31.0624C0.500055 32.9954 2.06698 34.5625 4.00004 34.5625H30.0313C31.9643 34.5625 33.5312 32.9954 33.5312 31.0624V5.00008C33.5312 3.06694 31.9643 1.50002 30.0313 1.50002Z" stroke="#EA4722" stroke-opacity="0.52"/>
</g>
<path fill-rule="evenodd" clip-rule="evenodd" d="M23.9643 17.7265C23.9677 17.7749 23.97 17.8239 23.97 17.873V21.3438C23.97 22.5257 23.012 23.4836 21.8302 23.4836H13.642C12.4602 23.4836 11.5022 22.5257 11.5022 21.3438V17.873C11.5022 17.8329 11.5035 17.7929 11.5057 17.7531C10.8867 17.717 10.3958 17.2039 10.3958 16.5758C10.3958 15.9244 10.9238 15.3964 11.5751 15.3964H13.001C12.9787 15.7679 13.1091 16.147 13.393 16.4307C13.9194 16.9572 14.7728 16.9572 15.2991 16.4307L16.3334 15.3964H18.9122L19.8869 16.3713C20.4133 16.8975 21.2667 16.8975 21.7931 16.3713C22.0618 16.1025 22.193 15.7486 22.1873 15.3964H23.7059C24.3572 15.3964 24.8853 15.9244 24.8853 16.5758C24.8853 17.1384 24.4913 17.6084 23.9643 17.7265ZM15.4496 21.1731L14.6647 18.4343C14.5684 18.0981 14.1988 17.8988 13.8393 17.9887C13.4798 18.0789 13.2664 18.4243 13.3628 18.7605L14.1477 21.4993C14.244 21.8353 14.6135 22.0349 14.973 21.9448C15.3326 21.8548 15.5459 21.5094 15.4496 21.1731ZM18.4085 18.5492C18.4085 18.2011 18.1068 17.919 17.7345 17.919C17.3624 17.919 17.0607 18.2011 17.0607 18.5492V21.3846C17.0607 21.7326 17.3624 22.0146 17.7345 22.0146C18.1068 22.0146 18.4085 21.7326 18.4085 21.3846V18.5492ZM21.6299 17.9887C21.2704 17.8988 20.9007 18.0982 20.8045 18.4343L20.0195 21.1731C19.9232 21.5094 20.1366 21.8548 20.4961 21.9448C20.8556 22.0349 21.2251 21.8353 21.3215 21.4993L22.1064 18.7606C22.2027 18.4244 21.9894 18.079 21.6299 17.9887ZM20.2876 15.986L17.6697 13.3682L15.0527 15.9851C14.7238 16.3139 14.1904 16.3139 13.8614 15.9851C13.5324 15.6562 13.5324 15.1227 13.8614 14.7938L16.698 11.957C16.7339 11.4644 17.1445 11.0758 17.6463 11.0758C18.0008 11.0758 18.3097 11.2701 18.4733 11.5577C18.5578 11.6737 18.609 11.8063 18.627 11.9428L21.4789 14.7947C21.808 15.1237 21.808 15.657 21.4789 15.986C21.15 16.3149 20.6166 16.3149 20.2876 15.986Z" fill="white"/>
<defs>
<filter id="filter0_di" x="-3" y="1.90735e-05" width="40.0312" height="40.0625" filterUnits="userSpaceOnUse" color-interpolation-filters="sRGB">
<feFlood flood-opacity="0" result="BackgroundImageFix"/>
<feColorMatrix in="SourceAlpha" type="matrix" values="0 0 0 0 0 0 0 0 0 0 0 0 0 0 0 0 0 0 127 0"/>
<feOffset dy="2"/>
<feGaussianBlur stdDeviation="1.5"/>
<feColorMatrix type="matrix" values="0 0 0 0 0.87451 0 0 0 0 0.317647 0 0 0 0 0.156863 0 0 0 0.48 0"/>
<feBlend mode="normal" in2="BackgroundImageFix" result="effect1_dropShadow"/>
<feBlend mode="normal" in="SourceGraphic" in2="effect1_dropShadow" result="shape"/>
<feColorMatrix in="SourceAlpha" type="matrix" values="0 0 0 0 0 0 0 0 0 0 0 0 0 0 0 0 0 0 127 0" result="hardAlpha"/>
<feOffset dy="1"/>
<feComposite in2="hardAlpha" operator="arithmetic" k2="-1" k3="1"/>
<feColorMatrix type="matrix" values="0 0 0 0 0.984314 0 0 0 0 0.376471 0 0 0 0 0.2 0 0 0 0.69 0"/>
<feBlend mode="normal" in2="shape" result="effect2_innerShadow"/>
</filter>
<linearGradient id="paint0_linear" x1="35" y1="36" x2="35" y2="1" gradientUnits="userSpaceOnUse">
<stop stop-color="#E84621"/>
<stop offset="1" stop-color="#FD5F37"/>
<stop offset="1" stop-color="#FD5F37"/>
</linearGradient>
</defs>
</svg>
