<svg width="17" height="16" viewBox="0 0 17 16" fill="none" xmlns="http://www.w3.org/2000/svg">
<path fill-rule="evenodd" clip-rule="evenodd" d="M11.0461 0.063297H14.0443V1.0478H11.0461V0.063297ZM12.0581 3.12446V1.06063H13.0741V4.14051L16.0244 7.08995L15.071 8.9351L14.0754 7.97543V16.0001H2.07475V8.15838L1.15181 9.09105L0.010819 7.05885L6.73769 0.422663L7.11285 0.037761H9.02005L11.9122 2.97864L12.0581 3.12446ZM8.90943 3.03157H7.21564L3.05682 7.01766V15.0065H6.07199V11.0469H10.0569V15.0065H13.0554V6.99256L8.90943 3.03157ZM6.06435 6.04773H10.0759V10.0252H6.06435V6.04773ZM7.0409 9.03103H9.0746V6.98068H7.0409V9.03103Z" fill="#7D7253"/>
</svg>
